<?xml version="1.0" encoding="UTF-8" standalone="no"?>
<!DOCTYPE svg PUBLIC "-//W3C//DTD SVG 1.1//EN" "http://www.w3.org/Graphics/SVG/1.1/DTD/svg11.dtd">
<!-- Created with Vectornator (http://vectornator.io/) -->
<svg height="1024.0px" stroke-miterlimit="10" style="fill-rule:nonzero;clip-rule:evenodd;stroke-linecap:round;stroke-linejoin:round;" version="1.1" viewBox="0 0 1024 1024" width="1024.0px" xml:space="preserve" xmlns="http://www.w3.org/2000/svg" xmlns:xlink="http://www.w3.org/1999/xlink">
<defs/>
<g id="Layer-2">
<g opacity="1">
<path d="M503.163 850.036L472.887 784.092L533.438 784.092L503.163 850.036Z" fill="#000000" fill-rule="nonzero" opacity="1" stroke="none"/>
<path d="M577.691 775.874C589.077 806.018 587.427 837.893 587.427 869.305" fill="none" opacity="1" stroke="#000000" stroke-linecap="round" stroke-linejoin="round" stroke-width="20"/>
<path d="M442.185 775.874C428.536 789.453 431.089 849.945 431.089 869.305" fill="none" opacity="1" stroke="#000000" stroke-linecap="round" stroke-linejoin="round" stroke-width="20"/>
<g opacity="1">
<g opacity="1">
<path d="M448.297 667.894C448.297 667.894 612.803 329.51 707.046 293.753C801.29 257.996 875.854 483.604 768.798 533.773C661.743 583.941 448.297 667.894 448.297 667.894Z" fill="#cde6ff" fill-rule="nonzero" opacity="1" stroke="#000000" stroke-linecap="round" stroke-linejoin="round" stroke-width="12.8845"/>
<path d="M453.88 665.834C453.88 665.834 716.047 541.642 796.419 540.741C876.79 539.841 828.251 651.942 732.735 657.208C637.22 662.475 453.88 665.834 453.88 665.834Z" fill="#cde6ff" fill-rule="nonzero" opacity="1" stroke="#000000" stroke-linecap="round" stroke-linejoin="round" stroke-width="12.8845"/>
</g>
<g opacity="1">
<path d="M575.703 667.894C575.703 667.894 411.197 329.51 316.954 293.753C222.71 257.996 148.146 483.604 255.202 533.773C362.257 583.941 575.703 667.894 575.703 667.894Z" fill="#cde6ff" fill-rule="nonzero" opacity="1" stroke="#000000" stroke-linecap="round" stroke-linejoin="round" stroke-width="12.8845"/>
<path d="M570.12 665.834C570.12 665.834 307.953 541.642 227.581 540.741C147.21 539.841 195.749 651.942 291.265 657.208C386.78 662.475 570.12 665.834 570.12 665.834Z" fill="#cde6ff" fill-rule="nonzero" opacity="1" stroke="#000000" stroke-linecap="round" stroke-linejoin="round" stroke-width="12.8845"/>
</g>
</g>
<path d="M512 426.946C599.45 426.946 670.342 511.817 670.342 616.51C670.342 721.203 599.45 806.073 512 806.073C424.55 806.073 353.658 721.203 353.658 616.51C353.658 511.817 424.55 426.946 512 426.946Z" fill="#ffbb0b" fill-rule="nonzero" opacity="1" stroke="#000000" stroke-linecap="round" stroke-linejoin="round" stroke-width="15"/>
<path d="M359.857 563.626C358.308 570.112 357.125 576.762 356.132 583.5C368.989 672.734 436.56 722.87 514.768 722.87C592.988 722.87 655.024 672.715 667.868 583.462C666.882 576.737 665.689 570.1 664.143 563.626C645.21 642.939 585.859 687.561 513.53 687.561C441.201 687.561 378.79 642.939 359.857 563.626Z" fill="#000000" fill-rule="nonzero" opacity="1" stroke="#000000" stroke-linecap="round" stroke-linejoin="round" stroke-width="5"/>
<path d="M372.043 527.875C370.26 531.901 368.619 536.039 367.077 540.23C379.518 615.718 441.076 657.209 513.515 657.209C585.927 657.209 644.421 615.752 656.893 540.306C655.348 536.103 653.714 531.95 651.927 527.913C632.602 592.511 578.898 625.118 513.515 625.118C448.117 625.118 391.354 592.497 372.043 527.875Z" fill="#000000" fill-rule="nonzero" opacity="1" stroke="#000000" stroke-linecap="round" stroke-linejoin="round" stroke-width="5"/>
<path d="M622.549 740.216C644.311 761.978 646.401 795.868 656.644 823.523" fill="none" opacity="1" stroke="#000000" stroke-linecap="round" stroke-linejoin="round" stroke-width="20"/>
<path d="M411.869 753.404C411.869 744.042 391.666 776.676 391.284 777.206C376.714 797.38 368.447 821.006 368.447 846.039" fill="none" opacity="1" stroke="#000000" stroke-linecap="round" stroke-linejoin="round" stroke-width="20"/>
</g>
<g opacity="1">
<path d="M334.046 405.504C334.046 312.35 413.719 236.833 512 236.833C610.281 236.833 689.954 312.35 689.954 405.504C689.954 498.659 610.281 574.176 512 574.176C413.719 574.176 334.046 498.659 334.046 405.504Z" fill="#ffc30b" fill-rule="nonzero" opacity="1" stroke="#000000" stroke-linecap="round" stroke-linejoin="round" stroke-width="15"/>
<g opacity="1">
<g opacity="1">
<path d="M423.025 375.825C423.025 348.326 436.449 326.032 453.008 326.032C469.566 326.032 482.99 348.326 482.99 375.825C482.99 403.325 469.566 425.618 453.008 425.618C436.449 425.618 423.025 403.325 423.025 375.825Z" fill="#ffffff" fill-rule="nonzero" opacity="1" stroke="#000000" stroke-linecap="round" stroke-linejoin="round" stroke-width="5"/>
<path d="M437.576 384.691C437.576 365.069 446.183 349.162 456.801 349.162C467.419 349.162 476.026 365.069 476.026 384.691C476.026 404.314 467.419 420.221 456.801 420.221C446.183 420.221 437.576 404.314 437.576 384.691Z" fill="#000000" fill-rule="nonzero" opacity="1" stroke="#000000" stroke-linecap="round" stroke-linejoin="round" stroke-width="5"/>
</g>
<g opacity="1">
<path d="M544.489 375.825C544.489 348.326 557.151 326.032 572.769 326.032C588.388 326.032 601.049 348.326 601.049 375.825C601.049 403.325 588.388 425.618 572.769 425.618C557.151 425.618 544.489 403.325 544.489 375.825Z" fill="#ffffff" fill-rule="nonzero" opacity="1" stroke="#000000" stroke-linecap="round" stroke-linejoin="round" stroke-width="5"/>
<path d="M555.231 384.691C555.231 365.069 563.35 349.162 573.365 349.162C583.379 349.162 591.498 365.069 591.498 384.691C591.498 404.314 583.379 420.221 573.365 420.221C563.35 420.221 555.231 404.314 555.231 384.691Z" fill="#000000" fill-rule="nonzero" opacity="1" stroke="#000000" stroke-linecap="round" stroke-linejoin="round" stroke-width="5"/>
</g>
</g>
<path d="M450.986 484.187C489.176 499.175 543.044 499.175 580.832 485.9" fill="none" opacity="1" stroke="#000000" stroke-linecap="round" stroke-linejoin="round" stroke-width="15"/>
<g opacity="1">
<g opacity="1">
<path d="M617.787 165.074C617.787 159.341 619.532 154.695 621.684 154.695C623.837 154.695 625.582 159.341 625.582 165.074C625.582 170.806 623.837 175.452 621.684 175.452C619.532 175.452 617.787 170.806 617.787 165.074Z" fill="#000000" fill-rule="nonzero" opacity="1" stroke="#000000" stroke-linecap="butt" stroke-linejoin="round" stroke-width="15"/>
<path d="M549.439 261.615C549.439 230.061 558.203 176.578 608.193 164.7" fill="none" opacity="1" stroke="#000000" stroke-linecap="round" stroke-linejoin="round" stroke-width="15"/>
</g>
<g opacity="1">
<path d="M474.561 261.615C474.561 230.061 465.797 176.578 415.807 164.7" fill="none" opacity="1" stroke="#000000" stroke-linecap="round" stroke-linejoin="round" stroke-width="15"/>
<path d="M406.213 165.074C406.213 159.341 404.468 154.695 402.316 154.695C400.163 154.695 398.418 159.341 398.418 165.074C398.418 170.806 400.163 175.452 402.316 175.452C404.468 175.452 406.213 170.806 406.213 165.074Z" fill="#000000" fill-rule="nonzero" opacity="1" stroke="#000000" stroke-linecap="butt" stroke-linejoin="round" stroke-width="15"/>
</g>
</g>
</g>
<g opacity="1">
<path d="M602.523 603.768C600.871 603.735 599.207 603.837 597.537 603.996C590.418 604.672 583.265 607.059 576.432 610.188L577.512 620.027C582.723 617.729 588.109 615.943 593.507 615.431C598.916 614.917 604.259 615.562 609.211 617.976C635.622 630.852 631.355 659.84 631.355 659.84C631.355 659.84 630.777 689.861 605.472 704.173C599.769 707.399 593.666 710.186 587.608 712.644L588.896 724.611C596.808 721.45 604.825 717.776 612.286 713.556C643.532 695.883 644.234 658.814 644.234 658.814C644.234 658.814 649.51 623.011 616.897 607.111C612.311 604.875 607.479 603.865 602.523 603.768Z" fill="#f1e3c5" fill-rule="nonzero" opacity="1" stroke="#000000" stroke-linecap="round" stroke-linejoin="round" stroke-width="5"/>
<path d="M461.688 790.278C461.688 782.251 481.108 775.744 505.064 775.744C529.02 775.744 548.44 782.251 548.44 790.278C548.44 798.305 529.02 804.813 505.064 804.813C481.108 804.813 461.688 798.305 461.688 790.278Z" fill="#c8b384" fill-rule="nonzero" opacity="1" stroke="#000000" stroke-linecap="round" stroke-linejoin="round" stroke-width="5"/>
<path d="M570.597 622.451C582.273 627.127 592.298 617.253 605.429 621.274C641.397 632.287 635.102 676.254 615.272 696.826C609.851 702.451 588.992 709.831 587.068 712.872C584.929 716.254 587.068 720.698 587.068 724.611C611.809 714.432 630.562 704.571 638.775 679.371C647.758 651.809 642.216 611.196 601.123 612.366C590.765 612.66 579.583 618.44 570.597 622.451Z" fill="#f3e0b7" fill-rule="nonzero" opacity="1" stroke="#000000" stroke-linecap="round" stroke-linejoin="round" stroke-width="5"/>
<path d="M501.156 583.483C451.409 583.483 411.091 600.768 411.091 622.125C411.091 632.868 418.221 650.153 418.221 675.368C418.221 678.037 418.221 694.942 418.221 711.776C418.221 761.279 456.944 801.426 504.72 801.426C552.497 801.426 591.22 761.28 591.22 711.776C591.22 694.105 584.953 671.056 584.953 669.197C584.953 649.532 591.22 632.889 591.22 622.125C591.22 600.768 550.902 583.483 501.156 583.483Z" fill="#f1e3c5" fill-rule="nonzero" opacity="1" stroke="#000000" stroke-linecap="round" stroke-linejoin="round" stroke-width="5"/>
<path d="M410.779 620.451C410.768 620.727 410.705 620.999 410.708 621.276C410.891 643.129 451.505 660.46 501.418 659.983C550.699 659.512 590.555 641.841 591.384 620.362L410.779 620.451Z" fill="#94793b" fill-rule="nonzero" opacity="1" stroke="#000000" stroke-linecap="round" stroke-linejoin="round" stroke-width="3"/>
<path d="M417.951 620.383C417.813 603.941 455.085 590.255 501.201 589.814C547.317 589.374 584.814 602.346 584.952 618.788C585.091 635.23 547.818 648.916 501.702 649.356C455.586 649.796 418.089 636.825 417.951 620.383Z" fill="#d4be8e" fill-rule="nonzero" opacity="1" stroke="#000000" stroke-linecap="round" stroke-linejoin="round" stroke-width="1"/>
<path d="M497.334 627.097C471.001 627.097 447.864 631.069 433.49 637.109C448.622 644.738 473.759 649.623 502.264 649.351C527.157 649.113 549.23 644.927 564.476 638.621C550.548 631.735 525.797 627.097 497.334 627.097Z" fill="#b9dd81" fill-rule="nonzero" opacity="1" stroke="#000000" stroke-linecap="round" stroke-linejoin="round" stroke-width="5"/>
<path d="M500.668 583.496C450.822 583.972 410.551 600.508 410.719 620.447C410.887 640.386 451.425 656.174 501.271 655.698C551.117 655.223 591.388 638.648 591.22 618.709C591.052 598.77 550.514 583.02 500.668 583.496ZM501.2 589.805C547.316 589.365 584.803 602.343 584.942 618.785C585.08 635.227 547.813 648.911 501.697 649.351C455.58 649.791 418.093 636.814 417.955 620.372C417.816 603.93 455.084 590.246 501.2 589.805Z" fill="#ebdab5" fill-rule="nonzero" opacity="1" stroke="#000000" stroke-linecap="round" stroke-linejoin="round" stroke-width="3"/>
</g>
<g opacity="1">
<path d="M694.676 570.829C693.841 570.177 693.371 570.765 692.538 571.395" fill="none" opacity="1" stroke="#000000" stroke-linecap="round" stroke-linejoin="round" stroke-width="18.0767"/>
<path d="M307.439 599.921C307.372 599.686 307.304 599.451 307.236 599.216" fill="none" opacity="1" stroke="#000000" stroke-linecap="round" stroke-linejoin="round" stroke-width="18.0767"/>
<path d="M644.404 643.809C647.522 642.804 644.852 639.073 642.414 641.127C641.698 641.729 641.44 642.85 642.465 643.263C643.568 643.707 647.403 642.147 645.232 641.478C643.645 640.989 639.701 645.325 644.404 643.809Z" fill="none" opacity="1" stroke="#000000" stroke-linecap="round" stroke-linejoin="round" stroke-width="12.8845"/>
<path d="M634.512 648.053C634.421 647.587 624.71 648.872 624.535 650.461C624.071 654.692 638.732 653.842 639.105 650.451C639.314 648.544 629.448 650.367 628.696 651.589" fill="none" opacity="1" stroke="#000000" stroke-linecap="round" stroke-linejoin="round" stroke-width="12.8845"/>
<path d="M638.032 657.62C637.752 656.796 625.683 661.003 626.466 664.091C627.523 668.254 640.365 665.412 640.04 662.739C639.92 661.747 618.278 668.47 635.385 666.115" fill="none" opacity="1" stroke="#000000" stroke-linecap="round" stroke-linejoin="round" stroke-width="12.8845"/>
<path d="M639.787 668.946C638.251 666.276 625.686 670.882 626.623 675.673C627.771 681.549 644.763 675.848 642.913 670.4C641.919 667.476 629.486 674.493 630.037 675.794C631.949 680.307 641.058 671.153 639.787 668.946Z" fill="none" opacity="1" stroke="#000000" stroke-linecap="round" stroke-linejoin="round" stroke-width="12.8845"/>
<path d="M416.886 704.917C420.023 704.221 424.16 705.519 427.345 705.916" fill="none" opacity="1" stroke="#000000" stroke-linecap="round" stroke-linejoin="round" stroke-width="12.8845"/>
<path d="M413.591 711.505C416.324 713.413 423.166 717.567 426.308 717.958" fill="none" opacity="1" stroke="#000000" stroke-linecap="round" stroke-linejoin="round" stroke-width="12.8845"/>
<path d="M408.025 715.376C407.535 719.834 421.559 727.079 424.708 729.93" fill="none" opacity="1" stroke="#000000" stroke-linecap="round" stroke-linejoin="round" stroke-width="12.8845"/>
<path d="M411.411 697.541C411.124 696.693 411.08 697.094 411.543 696.34" fill="none" opacity="1" stroke="#000000" stroke-linecap="round" stroke-linejoin="round" stroke-width="12.8845"/>
<path d="M643.552 655.954C643.391 655.695 643.231 655.435 643.07 655.176" fill="none" opacity="1" stroke="#000000" stroke-linecap="round" stroke-linejoin="round" stroke-width="18.0767"/>
<path d="M377.775 533.435C359.249 530.146 307.439 598.263 307.439 598.263C307.439 598.263 370.27 707.155 410.708 707.155" fill="none" opacity="1" stroke="#000000" stroke-linecap="round" stroke-linejoin="round" stroke-width="18.0767"/>
<path d="M651.633 531.764C674.249 519.718 692.538 570.554 692.538 570.554C692.538 570.554 674.247 636.704 644.549 657.794" fill="none" opacity="1" stroke="#000000" stroke-linecap="round" stroke-linejoin="round" stroke-width="18.0767"/>
</g>
<g opacity="1">
<path d="M554.799 528.565C531.065 541.206 563.937 593.856 544.138 612.524" fill="none" opacity="1" stroke="#7c7a74" stroke-linecap="round" stroke-linejoin="round" stroke-opacity="0.740261" stroke-width="12.8845"/>
<path d="M511.012 479.082C502.843 476.907 496.023 496.237 495.401 502.201C494.52 510.648 500.58 519.954 502.254 528.16C507.158 552.188 503.163 571.905 502.445 599.921" fill="none" opacity="1" stroke="#7c7a74" stroke-linecap="round" stroke-linejoin="round" stroke-opacity="0.740261" stroke-width="12.8845"/>
<path d="M457.325 506.663C436.329 533.501 463.036 583.483 463.036 614.552" fill="none" opacity="1" stroke="#7c7a74" stroke-linecap="round" stroke-linejoin="round" stroke-opacity="0.740261" stroke-width="12.8845"/>
</g>
</g>
</svg>
