<?xml version="1.0" encoding="UTF-8" standalone="no"?>
<!DOCTYPE svg PUBLIC "-//W3C//DTD SVG 1.1//EN" "http://www.w3.org/Graphics/SVG/1.1/DTD/svg11.dtd">
<!-- Created with Vectornator (http://vectornator.io/) -->
<svg height="1024.0px" stroke-miterlimit="10" style="fill-rule:nonzero;clip-rule:evenodd;stroke-linecap:round;stroke-linejoin:round;" version="1.1" viewBox="0 0 1024 1024" width="1024.0px" xml:space="preserve" xmlns="http://www.w3.org/2000/svg" xmlns:xlink="http://www.w3.org/1999/xlink">
<defs/>
<g id="Layer-1">
<g opacity="1">
<path d="M830.501 155.489C823.985 155.36 817.422 155.762 810.836 156.388C782.753 159.055 754.54 168.471 727.586 180.813L731.846 219.625C752.402 210.557 773.647 203.516 794.94 201.493C816.274 199.466 837.352 202.01 856.886 211.533C961.066 262.324 944.233 376.669 944.233 376.669C944.233 376.669 941.953 495.089 842.137 551.545C819.638 564.27 795.564 575.262 771.669 584.962L776.749 632.165C807.959 619.694 839.581 605.205 869.013 588.558C992.267 518.846 995.036 372.623 995.036 372.623C995.036 372.623 1015.85 231.393 887.203 168.675C869.113 159.856 850.05 155.873 830.501 155.489Z" fill="#f1e3c5" fill-rule="nonzero" opacity="1" stroke="#000000" stroke-linecap="round" stroke-linejoin="round" stroke-width="10"/>
<path d="M274.967 891.194C274.967 859.53 351.572 833.861 446.068 833.861C540.564 833.861 617.169 859.53 617.169 891.194C617.169 922.858 540.564 948.527 446.068 948.527C351.572 948.527 274.967 922.858 274.967 891.194Z" fill="#c8b384" fill-rule="nonzero" opacity="1" stroke="#000000" stroke-linecap="round" stroke-linejoin="round" stroke-width="10"/>
<path d="M704.569 229.185C750.626 247.629 790.168 208.682 841.966 224.543C983.843 267.985 959.012 441.416 880.792 522.566C859.407 544.752 777.128 573.864 769.539 585.861C761.101 599.198 769.539 616.73 769.539 632.165C867.134 592.011 941.104 553.114 973.502 453.713C1008.94 344.993 987.075 184.791 824.981 189.403C784.121 190.565 740.013 213.363 704.569 229.185Z" fill="#f3e0b7" fill-rule="nonzero" opacity="1" stroke="#000000" stroke-linecap="round" stroke-linejoin="round" stroke-width="10"/>
<path d="M430.65 75.473C234.421 75.4731 75.3842 143.653 75.3842 227.901C75.3841 270.275 103.508 338.46 103.508 437.922C103.508 448.449 103.508 515.132 103.508 581.535C103.508 776.807 256.253 935.169 444.712 935.169C633.171 935.169 785.916 776.807 785.916 581.535C785.916 511.831 761.195 420.912 761.195 413.581C761.195 336.009 785.916 270.358 785.916 227.901C785.916 143.654 626.879 75.473 430.65 75.473Z" fill="#f1e3c5" fill-rule="nonzero" opacity="1" stroke="#000000" stroke-linecap="round" stroke-linejoin="round" stroke-width="10"/>
<path d="M74.1522 221.297C74.1101 222.386 73.8612 223.458 73.8704 224.552C74.5958 310.752 234.798 379.114 431.687 377.234C626.077 375.378 783.294 305.67 786.563 220.944L74.1522 221.297Z" fill="#94793b" fill-rule="nonzero" opacity="1" stroke="#000000" stroke-linecap="round" stroke-linejoin="round" stroke-width="10"/>
<path d="M102.442 221.026C101.897 156.17 248.921 102.185 430.83 100.448C612.739 98.7108 760.648 149.88 761.194 214.737C761.739 279.593 614.715 333.578 432.806 335.315C250.897 337.052 102.988 285.883 102.442 221.026Z" fill="#d4be8e" fill-rule="nonzero" opacity="1" stroke="#000000" stroke-linecap="round" stroke-linejoin="round" stroke-width="10"/>
<path d="M415.575 247.512C311.704 247.512 220.436 263.179 163.738 287.007C223.427 317.098 322.584 336.368 435.023 335.295C533.216 334.357 620.284 317.846 680.424 292.968C625.483 265.806 527.85 247.512 415.575 247.512Z" fill="#b9dd81" fill-rule="nonzero" opacity="1" stroke="#000000" stroke-linecap="round" stroke-linejoin="round" stroke-width="10"/>
<path d="M428.727 75.5233C232.106 77.4007 73.2544 142.629 73.9162 221.281C74.5781 299.933 234.484 362.21 431.105 360.333C627.727 358.456 786.578 293.078 785.916 214.426C785.254 135.774 625.348 73.6459 428.727 75.5233ZM430.826 100.412C612.735 98.6756 760.606 149.867 761.152 214.724C761.698 279.581 614.693 333.558 432.784 335.295C250.875 337.032 103.003 285.84 102.458 220.983C101.912 156.127 248.917 102.149 430.826 100.412Z" fill="#ebdab5" fill-rule="nonzero" opacity="1" stroke="#000000" stroke-linecap="round" stroke-linejoin="round" stroke-width="10"/>
</g>
</g>
</svg>
